<?xml version="1.0" encoding="utf-8"?>
<!-- Svg Vector Icons : http://www.onlinewebfonts.com/icon -->
<!DOCTYPE svg PUBLIC "-//W3C//DTD SVG 1.1//EN" "http://www.w3.org/Graphics/SVG/1.1/DTD/svg11.dtd">
<svg version="1.1" xmlns="http://www.w3.org/2000/svg" xmlns:xlink="http://www.w3.org/1999/xlink" x="0px" y="0px" viewBox="0 0 256 256" enable-background="new 0 0 256 256" xml:space="preserve">
<metadata> Svg Vector Icons : http://www.onlinewebfonts.com/icon </metadata>
<g><g><g><path fill="#fff" d="M46.4,10.8c-3.7,1.3-5.1,2.5-20.4,17.9C10.3,44.4,10.1,44.9,10.1,52c0,3.6,0.3,5,1.3,7.1c0.9,2.1,7.9,9.3,34.3,35.7l33,33.1l-33,33.1c-26.4,26.5-33.3,33.7-34.3,35.8c-1.8,3.9-1.8,10.6-0.1,14.3c1.8,3.8,29.8,31.8,33.6,33.6c3.7,1.7,10.4,1.7,14.2-0.1c2.1-0.9,9.3-7.9,35.8-34.3l33.1-33l33.1,33c26.4,26.4,33.6,33.3,35.7,34.3c3.8,1.8,10.5,1.8,14.2,0.1c3.8-1.8,31.8-29.8,33.6-33.6c1.7-3.7,1.7-10.4-0.1-14.3c-0.9-2.1-7.9-9.3-34.3-35.8l-33-33.1l32.8-32.9C247.3,58,245.9,59.6,245.9,52c0.1-7.1-0.2-7.5-17.3-24.6c-17.1-17.2-17.5-17.4-24.6-17.4c-3.6,0-5,0.3-7.1,1.3c-2.1,1-9.5,8.1-35.7,34.3l-33.1,33l-33.1-33C68.2,19,61.2,12.4,59.2,11.5C55.5,9.8,50,9.5,46.4,10.8z"/></g></g></g>
</svg>