<?xml version="1.0" encoding="UTF-8"?>
<!-- Created with Inkscape (http://www.inkscape.org/) -->
<svg version="1.1" viewBox="0 0 210 297" xmlns="http://www.w3.org/2000/svg">
 <g>
  <circle cx="105" cy="148.5" r="47" stroke-width=".4553"/>
  <g transform="translate(2.5e-6,103.5)">
   <path d="m150 45a45 45 0 0 1-22.5 38.971 45 45 0 0 1-45-1e-5 45 45 0 0 1-22.5-38.971h45z" fill="#fff" stroke-width=".25176"/>
   <path d="m60 45a45 45 0 0 1 45-45 45 45 0 0 1 45 45h-45z" fill="#ce0000" stroke-width=".25176"/>
  </g>
  <g transform="translate(-.25568 52.997)">
   <rect x="56.27" y="90.503" width="97.971" height="10" rx="4.7572" ry="5" stroke-width=".15343"/>
   <g transform="translate(7.5968 -57.289)">
    <circle cx="97.659" cy="152.79" r="15" stroke-width=".16253"/>
    <circle cx="97.659" cy="152.79" r="10" fill="#fff" stroke-width=".10835"/>
   </g>
  </g>
 </g>
</svg>
